HIERARCHY
ROOT Hips
{
	OFFSET -3.958830 18.904000 13.208200
	CHANNELS 6 Xposition Yposition Zposition Zrotation Yrotation Xrotation 
	JOINT LHipJoint
	{
		OFFSET 0.000000 0.000000 0.000000
		CHANNELS 3 Zrotation Yrotation Xrotation
		JOINT LeftUpLeg
		{
			OFFSET 1.800000 -1.400000 0.085000
			CHANNELS 3 Zrotation Yrotation Xrotation
			JOINT LeftLeg
			{
				OFFSET 2.215000 -6.000000 0.000000
				CHANNELS 3 Zrotation Yrotation Xrotation
				JOINT LeftFoot
				{
					OFFSET 2.500000 -6.900000 0.000000
					CHANNELS 3 Zrotation Yrotation Xrotation
					JOINT LeftToeBase
					{
						OFFSET 0.200000 -0.500000 1.950000
						CHANNELS 3 Zrotation Yrotation Xrotation
						End Site
						{
							OFFSET 0.000000 0.000000 0.000000
						}
					}
				}
			}
		}
	}
	JOINT RHipJoint
	{
		OFFSET 0.000000 0.000000 0.000000
		CHANNELS 3 Zrotation Yrotation Xrotation
		JOINT RightUpLeg
		{
			OFFSET -1.800000 -1.400000 0.085000
			CHANNELS 3 Zrotation Yrotation Xrotation
			JOINT RightLeg
			{
				OFFSET -2.215000 -6.000000 0.000000
				CHANNELS 3 Zrotation Yrotation Xrotation
				JOINT RightFoot
				{
					OFFSET -2.500000 -6.900000 0.000000
					CHANNELS 3 Zrotation Yrotation Xrotation
					JOINT RightToeBase
					{
						OFFSET -0.200000 -0.500000 1.950000
						CHANNELS 3 Zrotation Yrotation Xrotation
						End Site
						{
							OFFSET 0.000000 0.000000 0.000000
						}
					}
				}
			}
		}
	}
	JOINT LowerBack
	{
		OFFSET 0.000000 0.000000 0.000000
		CHANNELS 3 Zrotation Yrotation Xrotation
		JOINT Spine
		{
			OFFSET -0.087000 1.940000 -0.288900
			CHANNELS 3 Zrotation Yrotation Xrotation
			JOINT Spine1
			{
				OFFSET 0.000000 1.950000 0.060000
				CHANNELS 3 Zrotation Yrotation Xrotation
				JOINT Neck
				{
					OFFSET 0.000000 0.000000 0.000000
					CHANNELS 3 Zrotation Yrotation Xrotation
					JOINT Neck1
					{
						OFFSET 0.000000 1.600000 0.340000
						CHANNELS 3 Zrotation Yrotation Xrotation
						JOINT Head
						{
							OFFSET 0.000000 1.667000 -0.240000
							CHANNELS 3 Zrotation Yrotation Xrotation
							End Site
							{
								OFFSET 0.000000 0.000000 0.000000
							}
						}
					}
				}
				JOINT LeftShoulder
				{
					OFFSET 0.000000 0.000000 0.000000
					CHANNELS 3 Zrotation Yrotation Xrotation
					JOINT LeftArm
					{
						OFFSET 2.700000 1.550000 -0.730000
						CHANNELS 3 Zrotation Yrotation Xrotation
						JOINT LeftForeArm
						{
							OFFSET 5.450000 0.000000 0.000000
							CHANNELS 3 Zrotation Yrotation Xrotation
							JOINT LeftHand
							{
								OFFSET 3.450000 0.000000 0.000000
								CHANNELS 3 Zrotation Yrotation Xrotation
								JOINT LeftHandIndex1
								{
									OFFSET 0.750000 0.000000 0.000000
									CHANNELS 3 Zrotation Yrotation Xrotation
									End Site
									{
										OFFSET 0.000000 0.000000 0.000000
									}
								}
							}
						}
					}
				}
				JOINT RightShoulder
				{
					OFFSET 0.000000 0.000000 0.000000
					CHANNELS 3 Zrotation Yrotation Xrotation
					JOINT RightArm
					{
						OFFSET -2.700000 1.550000 -0.730000
						CHANNELS 3 Zrotation Yrotation Xrotation
						JOINT RightForeArm
						{
							OFFSET -5.450000 0.000000 0.000000
							CHANNELS 3 Zrotation Yrotation Xrotation
							JOINT RightHand
							{
								OFFSET -3.450000 0.000000 0.000000
								CHANNELS 3 Zrotation Yrotation Xrotation
								JOINT RightHandIndex1
								{
									OFFSET -0.750000 0.000000 0.000000
									CHANNELS 3 Zrotation Yrotation Xrotation
									End Site
									{
										OFFSET 0.000000 0.000000 0.000000
									}
								}
							}
						}
					}
				}
			}
		}
	}
}
MOTION
Frames: 6
Frame Time: 0.016667
0.520620 17.266250 -4.354970 4.743960 12.251810 -16.089754 -16.526958 15.362554 3.580347 1.822056 3.955274 14.745875 -3.084639 6.311161 6.296097 -0.247435 7.252103 2.569818 -0.577160 -0.785020 -0.752440 17.169479 -8.659791 2.142233 -5.044875 -0.538632 -3.572036 3.003173 -4.356471 4.323833 -0.464918 -3.399143 2.871234 -0.278100 1.455300 0.832330 -0.110901 -8.820239 -7.414148 -14.000045 1.126264 30.364189 5.354356 -0.427226 26.474589 2.797879 0.283477 -9.669362 -3.045936 0.381762 34.635163 -7.599200 -1.466650 -21.411220 12.227412 -9.760468 2.223488 24.129112 -7.382690 2.943838 154.203868 -37.788832 -114.379436 -4.708949 2.938354 0.894790 0.537840 0.082830 0.335800 -18.818512 12.702806 8.301949 -17.643284 -3.868765 -3.530658 -149.924644 38.766319 -116.173982 1.820717 -1.332426 -0.682950 0.950440 0.978930 0.280500 
0.536840 17.270040 -4.348980 3.705428 11.841146 -17.095328 -16.441986 15.290543 3.535868 3.074856 3.730019 15.132947 -2.804005 6.327250 6.762380 -0.147000 7.137178 2.579008 -0.470690 -0.618900 -0.710450 17.220962 -8.795528 2.252974 -4.314989 -0.595577 -2.375591 3.335504 -4.506030 4.783133 -0.551732 -3.521355 2.818488 -0.240730 1.345080 0.842010 -0.331678 -8.415140 -7.465720 -11.373375 0.718270 32.406628 4.027487 -0.359271 26.574197 2.847359 -0.296394 -9.609078 -4.036878 0.069629 34.348298 -6.510640 -1.901660 -23.673480 12.101865 -9.258127 1.855041 24.138372 -7.086205 3.154127 158.586833 -40.498268 -127.760589 -4.540619 3.184696 0.862810 0.467970 0.154650 0.366160 -18.810703 12.374903 8.696898 -17.301116 -6.766252 -1.810509 -156.554765 36.001409 -127.495450 1.867129 -1.522370 -0.572330 0.863290 0.872190 0.317120 
0.546150 17.273620 -4.331090 3.462733 12.120190 -17.650984 -16.363149 15.224957 3.512445 3.186991 3.592404 15.394862 -1.918128 6.314699 7.883848 -0.249383 7.280811 2.545902 -0.584290 -0.858180 -0.694620 17.259662 -8.987441 2.300336 -4.278390 -0.573394 -1.822625 3.835457 -4.842543 5.931280 -0.524097 -3.649340 2.755158 -0.338650 1.406020 0.834140 -0.524145 -7.960479 -7.468910 -9.701082 0.408552 32.885902 2.977967 -0.145530 26.525512 3.346941 0.401973 -10.456574 -2.827521 -0.079342 35.799705 -8.093200 -1.527730 -19.868880 11.323708 -12.181162 1.764343 27.248623 -6.823872 3.028127 161.024158 -40.845015 -132.074288 -4.545157 3.221187 0.931240 0.493530 0.084190 0.303490 -18.712449 14.576821 10.276204 -16.771129 -7.957284 -1.445673 -157.339439 33.509194 -125.673224 1.879244 -1.466637 -0.681420 0.891960 0.979730 0.246660 
0.530560 17.281280 -4.336450 4.143812 11.508271 -17.978841 -16.529723 15.636837 3.493695 3.062482 3.600277 14.651265 -1.884368 6.632204 10.180002 -0.299988 7.543504 2.499717 -0.662400 -0.973180 -0.716730 17.113054 -8.729879 2.156038 -4.494447 -0.509599 -1.727112 3.758572 -4.934711 7.611619 -0.423362 -3.675328 2.761158 -0.334650 1.524750 0.812230 -0.051796 -9.116242 -7.413712 -12.645080 1.463139 33.335637 5.207412 0.455236 25.643761 3.182137 -0.424542 -9.353600 -4.460984 -0.268069 34.100116 -9.698310 -1.908660 -15.752770 12.043339 -9.569586 0.992748 26.548249 -9.930824 3.612120 160.738956 -42.930790 -132.384933 -4.766493 3.078868 0.873860 0.595920 -0.021080 0.290930 -19.643169 12.985074 9.028538 -18.457149 -9.727923 -1.950487 -154.694999 34.137728 -119.150928 1.824864 -1.481809 -0.773180 0.958610 1.036570 0.235370 
0.545550 17.252990 -4.342430 3.705000 10.974357 -21.077194 -16.461478 15.700685 3.509657 4.331562 3.429532 16.785942 -2.276779 7.214192 12.358036 -0.282302 8.111851 2.287095 -0.692150 -1.189950 -0.645510 17.149105 -8.782672 2.174254 -4.363591 -0.618904 0.737268 3.782173 -5.438851 9.545352 -0.506095 -3.955003 2.546041 -0.445760 1.570210 0.890340 -0.216667 -9.140298 -7.450168 -11.635538 0.656005 37.360625 3.128061 0.260378 26.331040 2.493513 -1.694635 -9.198413 -6.335659 0.684269 32.173845 -5.896480 -2.675750 -15.135760 14.714383 -8.620008 2.006044 26.753791 -5.100356 2.595993 152.088708 -39.346267 -112.106483 -4.925490 3.157899 0.966720 0.539440 -0.057830 0.249100 -21.206337 12.606541 7.731805 -20.851020 -11.480356 -4.701123 -146.212586 35.543906 -103.572883 1.883214 -1.573791 -0.812690 0.927320 1.157660 0.183020 
0.551530 17.254070 -4.349910 3.397945 9.828458 -22.076691 -16.509897 15.893076 3.551400 4.320342 3.589984 17.190759 -1.669386 7.251509 13.723429 -0.061950 7.841150 2.269461 -0.650310 -1.006890 -0.708290 17.067593 -8.783332 2.166140 -3.812107 -0.519245 0.697773 4.099066 -5.678064 11.313131 -0.636110 -3.778196 2.635167 -0.489150 1.294930 0.858580 -0.062608 -9.437259 -7.609206 -11.228985 0.975541 37.488741 3.747718 0.603514 25.451065 3.201927 -2.885154 -12.210259 -11.642337 2.606916 42.234868 -3.634070 -3.399350 -19.056080 13.655234 -14.911284 5.546449 27.992895 1.746738 -0.143118 138.784520 -38.281452 -88.343396 -4.783564 3.004496 1.076970 0.323450 0.192010 0.231020 -21.338656 19.401662 9.146624 -25.057041 -19.479129 -6.417578 -138.576745 36.561853 -90.295885 1.990368 -1.594008 -0.629410 0.841200 1.071900 0.227840 
